<svg xmlns="http://www.w3.org/2000/svg" width="238.168" height="50" viewBox="0 0 238.168 50"><g transform="translate(-185 -9)"><g transform="translate(8888.35 604)"><path d="M351.65,582.468v5.569h6.54V612h5.7V588.037h3.375c2.447,0,4.6-2.11,4.6-5.569Z" transform="translate(-8996 -1169.295)" fill="#fff"/><path d="M478.144,625.859c3.249-1.35,3.122-6.877-3.375-7.215-3.839-.169-7.51,2.194-7.51,6.2,0,3.924,3.5,5.738,7.13,7.552,5.7,2.827-.253,6.666-4.557,1.646l-3.375,3.629c4.768,6.287,15.4,4.261,15.4-3,0-6.2-7.595-7.215-9.114-8.945-.633-.717-.253-1.688.759-2.025A4.038,4.038,0,0,1,478.144,625.859Z" transform="translate(-9088.065 -1198.298)" fill="#fff"/><path d="M562.868,575.865a3.406,3.406,0,0,0-2.489,1.013c-1.856,1.857-.8,6.16-.3,7.932.717-1.9,3.755-1.35,5.274-2.869a3.5,3.5,0,0,0,1.013-2.532,3.287,3.287,0,0,0-1.055-2.489A3.2,3.2,0,0,0,562.868,575.865Zm-2.743,13.417v17.425h5.443V584.852C562.573,584.894,560.337,585.865,560.126,589.282Z" transform="translate(-9162.536 -1164)" fill="#fff"/><path d="M619.382,612v-2.321c6.244,6.16,16.75,1.941,16.75-8.354,0-6.624-5.021-11.35-10.421-11.181-5.569.211-6.118,4.894-5.147,6.666.928-1.35,2.911-1.73,4.43-1.73,7.637,0,7.806,12.573.042,12.573-4.388,0-5.654-4.346-5.654-8.185v-17c-3.291.084-5.316,2.067-5.316,4.346V612Z" transform="translate(-9206.435 -1169.295)" fill="#fff"/><path d="M749.814,618.678A11.281,11.281,0,0,0,741,622.939a6.193,6.193,0,0,1,7.595,1.013c3.924-.8,7.257,1.814,7.257,6.16a5.981,5.981,0,1,1-11.94.084,3.473,3.473,0,0,1,5.19-3.164c-.506-4.768-8.692-5.147-10.211-.211a11.486,11.486,0,1,0,10.928-8.143Z" transform="translate(-9306.151 -1198.332)" fill="#fff"/><path d="M878.05,642.756c7.927,0,12.073-4.6,12.073-11.8V610H884.2v9.7c0,4.237-1.367,8.52-6.2,8.52-8.611,0-8.428-13.395,0-13.395,1.686,0,3.873.456,4.921,1.959,1.093-2,.137-7.153-5.695-7.381-5.968-.228-11.527,4.51-11.527,11.846,0,11.39,11.618,16.083,18.5,9.249,0,3.417-1.185,6.561-6.788,6.788-3.007.091-7.517-1.458-9.476-3.645C866.113,639.931,872.036,642.756,878.05,642.756Z" transform="translate(-9408.227 -1190.891)" fill="#fff"/></g><path d="M16.113-6.65a1.588,1.588,0,0,1-.029.278A2.538,2.538,0,0,1,16-6.045q-.054.166-.117.317a1.063,1.063,0,0,1-.132.239q-.059.078-.171.21t-.249.288q-.137.156-.3.327t-.337.327q-.605.557-1.187,1.079a9.724,9.724,0,0,1-1.2.923,6.14,6.14,0,0,1-1.284.64,4.121,4.121,0,0,1-1.45.229A2.137,2.137,0,0,1,8.853-1.6a2.587,2.587,0,0,1-.688-.376,2.51,2.51,0,0,1-.557-.586,2.232,2.232,0,0,1-.332-.752q-.283.293-.6.61t-.649.64q-.337.322-.7.625a8.48,8.48,0,0,1-.742.557q-.215.137-.513.293A6.88,6.88,0,0,1,3.452-.3,5.117,5.117,0,0,1,2.8-.083,2.426,2.426,0,0,1,2.207,0a1.018,1.018,0,0,1-.688-.249,2.076,2.076,0,0,1-.479-.61,3.126,3.126,0,0,1-.283-.771,3.36,3.36,0,0,1-.093-.732A4.953,4.953,0,0,1,.85-3.682,8.372,8.372,0,0,1,1.333-5,10.623,10.623,0,0,1,2-6.211q.366-.576.718-1.025a7.987,7.987,0,0,1,.879-.933A8.938,8.938,0,0,1,4.648-9,6.561,6.561,0,0,1,5.723-9.59a2.437,2.437,0,0,1,.938-.225h.435a4.2,4.2,0,0,1,.454.024,3.264,3.264,0,0,1,.439.078,1.391,1.391,0,0,1,.391.161.893.893,0,0,1,.205.225,2.863,2.863,0,0,1,.22.371,3.132,3.132,0,0,1,.171.41,1.1,1.1,0,0,1,.068.322,3.458,3.458,0,0,1-.146.859q-.156.674-.288,1.226A4.879,4.879,0,0,0,8.477-5a2.286,2.286,0,0,0,.107.679,2.223,2.223,0,0,0,.308.63,1.7,1.7,0,0,0,.488.464,1.2,1.2,0,0,0,.649.181A3.285,3.285,0,0,0,11.25-3.3a6.624,6.624,0,0,0,1.265-.684,11.95,11.95,0,0,0,1.274-1.006q.635-.571,1.25-1.216l.171-.2q.122-.142.254-.283t.259-.254a.368.368,0,0,1,.186-.112Q16.113-7.051,16.113-6.65ZM7.422-7.461q0-.166-.02-.41a.81.81,0,0,0-.127-.4.3.3,0,0,0-.264-.151q-.156,0-.312,0a2.042,2.042,0,0,0-.659.107,2.925,2.925,0,0,0-.62.3,4.325,4.325,0,0,0-.581.439q-.278.249-.542.522a5.218,5.218,0,0,0-.474.557q-.249.332-.488.728t-.464.83a9.041,9.041,0,0,0-.391.859,6.617,6.617,0,0,0-.264.82,3.02,3.02,0,0,0-.1.718,1.815,1.815,0,0,0,.024.259,1.689,1.689,0,0,0,.078.313.8.8,0,0,0,.146.259A.291.291,0,0,0,2.6-1.6a3.035,3.035,0,0,0,1.123-.283A5.891,5.891,0,0,0,5.386-2.954,6.773,6.773,0,0,0,6.66-4.521,5.979,5.979,0,0,0,7.422-7.461ZM24.795-11.24a.221.221,0,0,1,.186.127.454.454,0,0,1,.078.234.911.911,0,0,1-.142.435,2.565,2.565,0,0,1-.386.5,4.214,4.214,0,0,1-.576.493,3.98,3.98,0,0,1-.7.405q-.537.234-1.191.449t-1.382.381q-.728.166-1.514.288t-1.577.181q-.049,0-.1.186t-.112.469q-.059.283-.112.63t-.1.674L17.07-5.2q-.039.264-.059.381-.088.527-.151.933t-.107.762q-.044.356-.073.688t-.039.7q-.01.205,0,.366t0,.317q0,.156,0,.317t-.024.366a.38.38,0,0,1-.122.166,2.193,2.193,0,0,1-.259.21A3.2,3.2,0,0,1,15.942.2a.515.515,0,0,1-.2.078.533.533,0,0,1-.4-.161A1.2,1.2,0,0,1,15.1-.254a1.632,1.632,0,0,1-.117-.4,2.194,2.194,0,0,1-.029-.264,10.491,10.491,0,0,1,.107-1.523q.107-.732.259-1.489T15.63-5.5q.161-.815.278-1.782a.379.379,0,0,0-.239-.225,1.122,1.122,0,0,0-.327-.049q-.059,0-.112,0t-.1,0q-.049,0-.254.015t-.488.029q-.283.015-.6.039t-.6.039q-.278.015-.483.029t-.254.015a.562.562,0,0,1-.308-.1,1.3,1.3,0,0,1-.269-.229,1.337,1.337,0,0,1-.19-.273.546.546,0,0,1-.073-.239.725.725,0,0,1,.073-.337.686.686,0,0,1,.186-.229.786.786,0,0,1,.254-.132.936.936,0,0,1,.278-.044q.146,0,.43-.01L13.457-9q.342-.015.713-.034t.693-.049q.322-.029.566-.059a2.327,2.327,0,0,0,.342-.059.949.949,0,0,0,.43-.43,3.859,3.859,0,0,0,.4-1.1q.039-.166.1-.469t.127-.674q.068-.371.137-.767t.127-.752q.059-.356.093-.635t.044-.415a.53.53,0,0,1,.1-.283,1.679,1.679,0,0,1,.239-.288,1.8,1.8,0,0,1,.273-.22.448.448,0,0,1,.205-.088.481.481,0,0,1,.283.1,1.143,1.143,0,0,1,.239.229,1.224,1.224,0,0,1,.161.269.588.588,0,0,1,.059.205,2.09,2.09,0,0,1-.024.22q-.024.171-.063.415t-.093.527q-.054.283-.1.537t-.083.454q-.039.2-.059.278-.137.6-.229.986t-.146.654q-.054.264-.078.425a1.945,1.945,0,0,0-.024.288.543.543,0,0,0,.059.3.253.253,0,0,0,.2.088q.039,0,.313-.029t.7-.088q.425-.059.942-.146t1.045-.2q.527-.112,1.016-.249a5.781,5.781,0,0,0,.85-.3q.352-.166.649-.322t.527-.283q.229-.127.381-.2A.6.6,0,0,1,24.795-11.24ZM38.516-8.252a.643.643,0,0,1-.039.2q-.039.117-.1.249a2.341,2.341,0,0,1-.132.254,2.122,2.122,0,0,1-.142.21,3.932,3.932,0,0,1-.337.337q-.249.229-.552.493T36.592-6q-.322.254-.557.41-.508.342-.986.679l-.967.679q-.488.342-1.006.693T31.963-2.8q-.352.225-.664.43t-.61.41q-.3.205-.591.42t-.6.449a11.078,11.078,0,0,0-.864.752,8.726,8.726,0,0,1-.894.752,1.942,1.942,0,0,1-1.182.381,1.886,1.886,0,0,1-.317-.029,1.134,1.134,0,0,1-.317-.1.782.782,0,0,1-.244-.186.423.423,0,0,1-.1-.288.486.486,0,0,1,.156-.352q.293-.293.542-.5t.513-.391q.264-.186.576-.381t.732-.479l.864-.576q.366-.244.669-.479a6.065,6.065,0,0,0,.576-.508,6.5,6.5,0,0,0,.576-.674,5.819,5.819,0,0,0,.347-.522,5.484,5.484,0,0,0,.308-.6,4.519,4.519,0,0,0,.225-.64,2.392,2.392,0,0,0,.088-.62,2.449,2.449,0,0,0-.083-.547,3.424,3.424,0,0,0-.239-.669,2.288,2.288,0,0,0-.376-.566.658.658,0,0,0-.493-.239,1.942,1.942,0,0,0-.84.205,4.368,4.368,0,0,0-.845.537,7.943,7.943,0,0,0-.815.757q-.4.425-.762.869t-.674.874q-.313.43-.557.771A4.752,4.752,0,0,0,25.02-2.09v.957a.521.521,0,0,1-.22.444.859.859,0,0,1-.522.161q-.791,0-.791-2.441,0-.8.078-1.655t.2-1.748q.122-.894.278-1.816t.313-1.88q.137-.82.234-1.45t.181-1.162q.083-.532.161-1t.186-.952a1.73,1.73,0,0,1,.156-.464,1.66,1.66,0,0,1,.239-.356,1.216,1.216,0,0,1,.269-.229.5.5,0,0,1,.254-.083.927.927,0,0,1,.747.254,1.072,1.072,0,0,1,.21.7q0,.01-.039.19t-.1.444l-.127.571-.127.571q-.059.264-.1.444t-.044.2q-.205.957-.371,1.777t-.332,1.563q-.1.439-.2.942t-.2,1.006q-.1.5-.176.991t-.137.908q.3-.488.713-1.025t.879-1.06q.469-.522.962-.991a9.428,9.428,0,0,1,.981-.82,3.467,3.467,0,0,1,1.992-.781,1.96,1.96,0,0,1,1.045.254,2.966,2.966,0,0,1,.854.723,3.416,3.416,0,0,1,.566,1,3.014,3.014,0,0,1,.19,1.089,1.714,1.714,0,0,1-.1.508q-.107.361-.254.757t-.3.737a5,5,0,0,1-.234.469q.645-.439,1.328-.923t1.372-1q.688-.518,1.353-1.06t1.279-1.1a1.077,1.077,0,0,1,.342-.239.782.782,0,0,1,.186-.054.256.256,0,0,1,.249.146A.689.689,0,0,1,38.516-8.252Zm8.652.039a7.54,7.54,0,0,1-.244,1.963,7.249,7.249,0,0,1-.7,1.714A8.313,8.313,0,0,1,45.088-3a16.728,16.728,0,0,1-1.523,1.44,7.107,7.107,0,0,1-.728.518,6.761,6.761,0,0,1-.845.449,6.255,6.255,0,0,1-.884.317,3.159,3.159,0,0,1-.835.122,1.378,1.378,0,0,1-.459-.063A.936.936,0,0,1,39.507-.4a1.737,1.737,0,0,1-.249-.278q-.117-.161-.273-.356-.225.664-.361,1.113t-.225.8q-.088.352-.137.669t-.1.718q-.049.4-.122.952t-.2,1.362a1.373,1.373,0,0,1-.107.361,2.5,2.5,0,0,1-.21.391,1.59,1.59,0,0,1-.264.313.415.415,0,0,1-.269.127.88.88,0,0,1-.332-.083,2.065,2.065,0,0,1-.371-.205,2.209,2.209,0,0,1-.3-.249.347.347,0,0,1-.127-.215,2.887,2.887,0,0,1,.083-.684q.083-.342.142-.654.3-1.543.63-2.891T37.3-1.885q.264-1.328.435-2.739a25.721,25.721,0,0,0,.171-3.081q0-.039,0-.181t0-.3q0-.161,0-.3t0-.186a2.462,2.462,0,0,1,.083-.635,2.029,2.029,0,0,1,.239-.562,1.473,1.473,0,0,1,.366-.405.759.759,0,0,1,.464-.156.3.3,0,0,1,.215.112,1.105,1.105,0,0,1,.2.3,2.077,2.077,0,0,1,.142.454,2.836,2.836,0,0,1,.054.566q0,.508-.059,1.162t-.142,1.323q-.083.669-.171,1.274t-.137,1.016a12.033,12.033,0,0,1,.884-1.641A15.286,15.286,0,0,1,41.074-7.3a12.436,12.436,0,0,1,1.118-1.2,11.54,11.54,0,0,1,1.1-.913A5.409,5.409,0,0,1,44.277-10a2.027,2.027,0,0,1,.781-.2,2.014,2.014,0,0,1,.825.171,2.3,2.3,0,0,1,.674.449,2.051,2.051,0,0,1,.449.635A1.75,1.75,0,0,1,47.168-8.213Zm-1.6.908a2.037,2.037,0,0,0-.1-.693,1.157,1.157,0,0,0-.234-.405.706.706,0,0,0-.288-.19.849.849,0,0,0-.249-.049,1.661,1.661,0,0,0-.9.347,7.045,7.045,0,0,0-1.055.908A14.3,14.3,0,0,0,41.65-6.113Q41.1-5.4,40.635-4.678q-.117.186-.308.5t-.366.649q-.176.337-.3.64a1.326,1.326,0,0,0-.127.459.486.486,0,0,0,.078.225,1.063,1.063,0,0,0,.229.269,1.425,1.425,0,0,0,.381.229,1.35,1.35,0,0,0,.532.1,2.18,2.18,0,0,0,.928-.249,5.564,5.564,0,0,0,1.05-.674,8.935,8.935,0,0,0,1.045-.991,8.58,8.58,0,0,0,.908-1.2,6.924,6.924,0,0,0,.64-1.294A3.725,3.725,0,0,0,45.566-7.3Z" transform="translate(376 40)" fill="#ee1956"/><g transform="translate(185 9)"><rect width="50" height="50" rx="10" fill="#ee1956"/><g transform="translate(9 6.998)"><path d="M24.243,36H0V2.051A7.318,7.318,0,0,1,.029,1.2,3.7,3.7,0,0,1,.143.544.939.939,0,0,1,.4.076.331.331,0,0,1,.614,0,1.476,1.476,0,0,1,1.4.422a4.7,4.7,0,0,1,.423.422L8.386,7.84h8.742L22.751.845a3.465,3.465,0,0,1,.361-.422,2.026,2.026,0,0,1,.36-.29A.781.781,0,0,1,23.87,0a.455.455,0,0,1,.254.076,1.1,1.1,0,0,1,.354.468A3.619,3.619,0,0,1,24.7,1.2a6.7,6.7,0,0,1,.147.846V32.864a8.412,8.412,0,0,0,1.3-.334,5.728,5.728,0,0,0,2.225-1.295,5.474,5.474,0,0,0,1.324-4.356,10.183,10.183,0,0,0-.358-1.542,23.861,23.861,0,0,1-.75-3.418,10.531,10.531,0,0,1,.172-3.843,7.233,7.233,0,0,1,1.124-2.451,9.014,9.014,0,0,1,1.576-1.7,10.394,10.394,0,0,1,1.4-.994,6.843,6.843,0,0,1,.607-.323A1.918,1.918,0,0,1,34,12.533a1.636,1.636,0,0,1,1.276.568,1.988,1.988,0,0,1,.485,1.214,1.864,1.864,0,0,1-.057.58,10.438,10.438,0,0,0-1.5,1.051,6.961,6.961,0,0,0-2.124,2.793,7.487,7.487,0,0,0-.156,3.592,11.734,11.734,0,0,0,.465,1.85,16.061,16.061,0,0,1,.388,1.736,14.564,14.564,0,0,1,.191,1.68,8.761,8.761,0,0,1-.073,1.786,7.9,7.9,0,0,1-.537,1.807,6.755,6.755,0,0,1-1.121,1.827,6.408,6.408,0,0,1-1.758,1.343,12.125,12.125,0,0,1-1.619.707,9.935,9.935,0,0,1-2.075.5,8.7,8.7,0,0,1-.933.077l-.6.362ZM4.272,20.306V30.791l.379.409h16.18l.41-.409V20.306H17.21a1.057,1.057,0,0,1-.34.5,2.008,2.008,0,0,1-.634.366,3.948,3.948,0,0,1-1.13.218c-.1.006-.2.01-.3.01a3.27,3.27,0,0,1-.993-.138,1.887,1.887,0,0,1-.592-.3,1.117,1.117,0,0,1-.36-.443h0a1.937,1.937,0,0,1-.529.438,2.956,2.956,0,0,1-.715.3,3.966,3.966,0,0,1-1.064.137,3.1,3.1,0,0,1-1.044-.169,2.349,2.349,0,0,1-.675-.371,1.791,1.791,0,0,1-.471-.54Z" transform="translate(0)" fill="#fff"/><circle cx="2.714" cy="2.714" r="2.714" transform="translate(16.706 12.965)" fill="#614b24"/><circle cx="0.905" cy="0.905" r="0.905" transform="translate(17.31 14.171)" fill="#fff"/><circle cx="2.714" cy="2.714" r="2.714" transform="translate(3.139 12.965)" fill="#614b24"/><circle cx="0.905" cy="0.905" r="0.905" transform="translate(3.741 14.171)" fill="#fff"/></g><g transform="translate(14.2 28.8)"><g transform="translate(0 0.856)"><path d="M2.451,175.485h-.4v-.1A.049.049,0,0,0,2,175.333H.947a.049.049,0,0,0,0,.1H1.953v.374a.93.93,0,0,1-.459.8H.557a.93.93,0,0,1-.459-.8v-.374H.425a.049.049,0,0,0,0-.1H.049a.049.049,0,0,0-.049.049v.423a1.024,1.024,0,0,0,.385.8H.049a.049.049,0,0,0-.049.049.323.323,0,0,0,.322.322H1.846a.323.323,0,0,0,.322-.322.049.049,0,0,0-.049-.049H1.666a1.032,1.032,0,0,0,.226-.252H2.03a.471.471,0,0,0,.47-.47v-.349A.049.049,0,0,0,2.451,175.485ZM2.065,176.7a.225.225,0,0,1-.219.176H.322A.225.225,0,0,1,.1,176.7H2.065Zm-.014-.9v-.027h.156v.1a.178.178,0,0,1-.177.177H2.019A1.028,1.028,0,0,0,2.051,175.805Zm.352.078a.373.373,0,0,1-.373.373H1.947a1.018,1.018,0,0,0,.042-.1H2.03a.275.275,0,0,0,.275-.275v-.154a.049.049,0,0,0-.049-.049H2.051v-.1H2.4Z" transform="translate(0 -175.333)" fill="#fff"/></g><g transform="translate(0.921 0)"><path d="M188.736.27l-.025-.032a.127.127,0,0,1,0-.159.049.049,0,1,0-.076-.061.224.224,0,0,0,0,.281l.025.032a.166.166,0,0,1,0,.208l-.026.033a.049.049,0,1,0,.076.061L188.737.6A.264.264,0,0,0,188.736.27Z" transform="translate(-188.585 0)" fill="#fff"/></g><g transform="translate(1.191 0.11)"><path d="M244.165,22.754l-.025-.032a.127.127,0,0,1,0-.159.049.049,0,1,0-.076-.061.225.225,0,0,0,0,.281l.025.032a.166.166,0,0,1,0,.208l-.026.033a.049.049,0,1,0,.076.061l.026-.033A.264.264,0,0,0,244.165,22.754Z" transform="translate(-244.014 -22.484)" fill="#fff"/></g><g transform="translate(0.65 0.11)"><path d="M133.307,22.755l-.025-.032a.127.127,0,0,1,0-.159.049.049,0,1,0-.076-.061.224.224,0,0,0,0,.281l.025.032a.166.166,0,0,1,0,.208l-.026.033a.049.049,0,1,0,.076.061l.026-.033A.264.264,0,0,0,133.307,22.755Z" transform="translate(-133.156 -22.485)" fill="#fff"/></g><g transform="translate(0.65 0.856)"><path d="M133.293,175.344a.049.049,0,1,0,.014.035A.049.049,0,0,0,133.293,175.344Z" transform="translate(-133.21 -175.33)" fill="#fff"/></g><g transform="translate(1.503 1.279)"><path d="M308.059,262a.049.049,0,0,0-.049.049.7.7,0,0,1-.2.489.049.049,0,1,0,.069.069.8.8,0,0,0,.23-.557A.049.049,0,0,0,308.059,262Z" transform="translate(-307.795 -262)" fill="#fff"/></g><g transform="translate(1.343 1.924)"><path d="M275.038,394.161a.049.049,0,0,0-.067-.019h0a.049.049,0,1,0,.048.085h0A.049.049,0,0,0,275.038,394.161Z" transform="translate(-274.945 -394.136)" fill="#fff"/></g></g><g transform="translate(14.1 34)"><path d="M16.1,17.983a.171.171,0,0,1-.015-.071v-.051a4.119,4.119,0,0,1,.2-1.278H17.2c-.038.12-.071.243-.1.366l.081.018c.029-.129.064-.258.1-.384h.089a.167.167,0,0,0,.167-.167v-.125a.042.042,0,0,0-.042-.042h-.208a.167.167,0,0,1,.167-.167h.008a.167.167,0,0,1,.161.123l.061.225c.015.053.028.108.041.162l.081-.019c-.013-.055-.027-.111-.041-.165l-.061-.225A.251.251,0,0,0,17.466,16H16.333a.25.25,0,0,0-.25.25v.167a.167.167,0,0,0,.118.159,4.2,4.2,0,0,0-.2,1.285v.051a.253.253,0,0,0,.023.106Zm1.36-1.649v.083a.083.083,0,0,1-.167,0v-.083Zm-1.292.083V16.25a.167.167,0,0,1,.167-.167h.939a.249.249,0,0,0-.064.167v.167a.166.166,0,0,0,.022.083H16.25A.083.083,0,0,1,16.167,16.417Z" transform="translate(-16 -16)" fill="#fff"/><path d="M97.676,217.291l-.019.081c.253.059.343.138.343.187s-.06.092-.172.135c-.019-.062-.1-.113-.234-.153l-.023.08c.116.034.172.074.178.1a2.9,2.9,0,0,1-1.416,0c.008-.039.127-.106.38-.141L96.7,217.5a1.224,1.224,0,0,0-.312.079.223.223,0,0,0-.136.118c-.111-.043-.172-.093-.172-.135,0-.018.014-.08.2-.146a2.131,2.131,0,0,1,.554-.1l-.005-.083a2.214,2.214,0,0,0-.577.1c-.21.075-.254.163-.254.224a.705.705,0,0,0,.048.257l.084.217.078-.03-.084-.217a.624.624,0,0,1-.024-.075.813.813,0,0,0,.221.095,3.009,3.009,0,0,0,1.438,0,.813.813,0,0,0,.221-.095.627.627,0,0,1-.024.075l-.143.368a.374.374,0,0,1-.055.1l.065.052a.458.458,0,0,0,.068-.118l.143-.368a.705.705,0,0,0,.048-.257C98.083,217.408,97.828,217.326,97.676,217.291Z" transform="translate(-95.583 -216.184)" fill="#fff"/><path d="M241.436,41.23a.854.854,0,0,0-.471.419l-.12.24.075.037.12-.24a.771.771,0,0,1,.394-.366.163.163,0,0,0,.008.024,1.227,1.227,0,0,0-.293.375l-.123.238L241.1,42l.123-.238a1.143,1.143,0,0,1,.27-.348l.014.01.017.009-.052.1-.14.264-.094.178.074.039.095-.178q.072-.137.14-.263l.062-.116a.761.761,0,0,1-.092.41l-.059.107.073.04.059-.107a.844.844,0,0,0,.1-.489.162.162,0,0,0,.042-.046l.332-.543a.163.163,0,0,0-.278-.17l-.332.543A.164.164,0,0,0,241.436,41.23Zm.087.008.332-.543a.08.08,0,0,1,.136.083l-.332.543a.08.08,0,0,1-.136-.083Z" transform="translate(-239.674 -40.446)" fill="#fff"/><path d="M18.072,384.177a.156.156,0,0,0-.119-.04l-.039,0a.292.292,0,0,0-.249-.14H16.456a.292.292,0,0,0-.249.14l-.039,0a.156.156,0,1,0-.014.311h.014l.039,0a.294.294,0,0,0,.249.14h1.208a.29.29,0,0,0,.206-.085.294.294,0,0,0,.043-.055l.039,0h.014a.156.156,0,0,0,.1-.271Zm-1.912.187a.072.072,0,1,1-.007-.145h.007l.251.023a.05.05,0,0,1,0,.1h0Zm.144.071.114-.01h0a.133.133,0,0,0,0-.265l-.114-.01,0,0a.208.208,0,1,1,0,.29Zm1.507,0a.207.207,0,0,1-.147.061h-1a.291.291,0,0,0,0-.417h1a.208.208,0,0,1,.147.356Zm.155-.075h-.02a.294.294,0,0,0,0-.142h.013a.072.072,0,1,1,.007.145Z" transform="translate(-15.998 -382.083)" fill="#fff"/></g><g transform="translate(17.1 31.2)"><g transform="translate(1.174 2.204)"><path d="M276.049,451.29a.049.049,0,1,0,.049.049A.049.049,0,0,0,276.049,451.29Z" transform="translate(-276 -451.29)" fill="#fff"/></g><g transform="translate(0.488 0.978)"><path d="M135.549,200.29a.049.049,0,0,0-.049.049v.933a.049.049,0,0,0,.1,0v-.933A.049.049,0,0,0,135.549,200.29Z" transform="translate(-135.5 -200.29)" fill="#fff"/></g><g transform="translate(0.879 0.978)"><path d="M215.549,200.29a.049.049,0,0,0-.049.049v.933a.049.049,0,0,0,.1,0v-.933A.049.049,0,0,0,215.549,200.29Z" transform="translate(-215.5 -200.29)" fill="#fff"/></g><g transform="translate(0)"><path d="M37.409.786h-.244V.638a.243.243,0,0,0-.093-.432.247.247,0,0,0-.14.01A.245.245,0,0,0,36.726.1a.241.241,0,0,0-.092.018A.437.437,0,0,0,35.966.2.44.44,0,0,0,35.5.636v.586a.148.148,0,0,0,.149.146.146.146,0,0,0,.051-.009v.9a.244.244,0,0,0,.244.244h.977a.244.244,0,0,0,.244-.244V2.109h.244a.244.244,0,0,0,.244-.244V1.03A.244.244,0,0,0,37.409.786Zm-.342,1.421h-.149a.049.049,0,1,0,0,.1h.141a.147.147,0,0,1-.138.1h-.977a.147.147,0,0,1-.138-.1h.722a.049.049,0,0,0,0-.1H35.8V.876a.339.339,0,0,0,.255-.188.036.036,0,0,1,.026.01.293.293,0,0,0,.416-.005.016.016,0,0,1,.012,0c.076,0,.126.016.148.048a.164.164,0,0,1,.018.093v.2a.147.147,0,0,0,.1.138v.795a.049.049,0,1,0,.1,0V1.165a.147.147,0,0,0,.1-.138V.683a.259.259,0,0,0,.1,0ZM36.938.571a.049.049,0,0,0-.071.044v.412a.049.049,0,0,1-.1,0v-.2a.249.249,0,0,0-.035-.148.259.259,0,0,0-.228-.09.114.114,0,0,0-.082.035.2.2,0,0,1-.277,0,.134.134,0,0,0-.094-.038.1.1,0,0,0-.088.055.242.242,0,0,1-.216.137A.049.049,0,0,0,35.7.831V1.22a.053.053,0,0,1-.051.051.051.051,0,0,1-.051-.049V.636A.343.343,0,0,1,35.941.3l.044,0a.049.049,0,0,0,.049-.025.34.34,0,0,1,.553-.06.049.049,0,0,0,.062.009A.141.141,0,0,1,36.726.2a.147.147,0,0,1,.138.1.049.049,0,0,0,.073.024.146.146,0,0,1,.224.087A.15.15,0,0,1,36.938.571Zm.227.508h.2v.737h-.2Zm.391.786a.147.147,0,0,1-.146.146h-.244v-.1h.244a.049.049,0,0,0,.049-.049V1.03a.049.049,0,0,0-.049-.049h-.244v-.1h.244a.147.147,0,0,1,.146.146Z" transform="translate(-35.5)" fill="#fff"/></g></g><g transform="translate(18 34.7)"><path d="M2.073.217A.073.073,0,0,0,2.012.211l-.584.2A.366.366,0,0,0,1.225.3.387.387,0,0,0,1.015.02L.995.009A.073.073,0,1,0,.929.14L.95.151A.241.241,0,0,1,1.076.3.367.367,0,0,0,.792.635L.049.894A.073.073,0,0,0,0,.963H0v.781H0a.073.073,0,0,0,.049.069L2.012,2.5a.073.073,0,0,0,.05,0l.007,0a.587.587,0,0,0,.245-.114A.54.54,0,0,0,2.5,1.94V.963A.912.912,0,0,0,2.073.217ZM1.157.441a.22.22,0,1,1-.22.22.22.22,0,0,1,.22-.22ZM.812.783A.366.366,0,0,0,1.5.543L2.027.361a.778.778,0,0,1,.326.6.762.762,0,0,1-.328.6l-.405-.142a.073.073,0,0,0-.1.069v.3a.073.073,0,0,1-.146,0v-.4a.073.073,0,0,0-.049-.069L.3.963.812.783Zm.418.895L.146,1.3V1.066l1.084.376ZM.146,1.457l1.088.378a.22.22,0,0,0,.359.125l.37.129v.236L.146,1.693Zm1.816.477-.3-.1a.22.22,0,0,0,0-.037V1.6l.293.1Zm.391.006a.372.372,0,0,1-.244.391V1.686a1,1,0,0,0,.244-.25Z" transform="translate(0 -0.002)" fill="#fff" stroke="#ee1956" stroke-width="0.5"/><circle cx="0.073" cy="0.073" r="0.073" transform="translate(1.938 0.571)" fill="#fff" stroke="#ee1956" stroke-width="0.5"/><circle cx="0.073" cy="0.073" r="0.073" transform="translate(2.036 0.913)" fill="#fff" stroke="#ee1956" stroke-width="0.5"/><circle cx="0.073" cy="0.073" r="0.073" transform="translate(1.792 1.206)" fill="#fff" stroke="#ee1956" stroke-width="0.5"/><circle cx="0.073" cy="0.073" r="0.073" transform="translate(1.646 0.864)" fill="#fff" stroke="#ee1956" stroke-width="0.5"/></g><g transform="translate(20.9 29.8)"><g transform="translate(0 0)"><path d="M179.37,58.442a.037.037,0,0,0,.032-.019l.032-.059a.037.037,0,1,0-.065-.035l-.032.059a.037.037,0,0,0,.032.054Z" transform="translate(-178.455 -58.027)" fill="#fff2f2"/><path d="M248.485,57.592v-.067a.037.037,0,1,0-.073,0v.067a.037.037,0,1,0,.073,0Z" transform="translate(-247.195 -57.21)" fill="#fff2f2"/><path d="M310.876,58.541a.037.037,0,0,0,.032-.055l-.034-.058a.037.037,0,1,0-.064.037l.034.058A.037.037,0,0,0,310.876,58.541Z" transform="translate(-309.284 -58.128)" fill="#fff2f2"/><path d="M2.507,1.887V1.854a.2.2,0,0,0-.087-.166.174.174,0,0,0,.055-.194,1.034,1.034,0,0,0-.332-.466A1.433,1.433,0,0,0,1.254.756h0A1.838,1.838,0,0,0,.8.817.037.037,0,0,0,.815.888,1.764,1.764,0,0,1,1.254.83a1.1,1.1,0,0,1,1.152.69.1.1,0,0,1-.094.134H.2a.1.1,0,0,1-.082-.042A.1.1,0,0,1,.1,1.521.966.966,0,0,1,.658.941.037.037,0,1,0,.63.874a1.077,1.077,0,0,0-.415.3A1.034,1.034,0,0,0,.032,1.5a.17.17,0,0,0,.022.157.173.173,0,0,0,.034.035A.2.2,0,0,0,0,1.854v.032a.2.2,0,0,0,.16.2V2.3A.2.2,0,0,0,0,2.5v.032a.2.2,0,0,0,.16.2A.471.471,0,0,0,.181,2.9a.516.516,0,0,0,.349.32.726.726,0,0,0,.23.037h.987a.726.726,0,0,0,.23-.037.516.516,0,0,0,.349-.32.471.471,0,0,0,.021-.171.2.2,0,0,0,.16-.2V2.5a.2.2,0,0,0-.16-.2V2.084a.2.2,0,0,0,.16-.2ZM.073,2.532V2.5A.128.128,0,0,1,.16,2.379V2.4a.134.134,0,0,0,.219.1.119.119,0,0,1,.082-.03H.473V2.66H.2a.128.128,0,0,1-.128-.128Zm1.463-.287h.737V2.4a.059.059,0,0,1-.034.054.059.059,0,0,1-.064-.008A.191.191,0,0,0,2.046,2.4a.224.224,0,0,0-.155.06.157.157,0,0,1-.219,0,.224.224,0,0,0-.155-.06.226.226,0,0,0-.155.06.157.157,0,0,1-.219,0A.226.226,0,0,0,.989,2.4a.224.224,0,0,0-.155.06.179.179,0,0,1-.07.04V2.294a.049.049,0,0,1,.049-.049h.552a.037.037,0,1,0,0-.073H.813a.122.122,0,0,0-.122.122v.452a.072.072,0,1,1-.145,0V2.294a.122.122,0,0,0-.122-.122H.234V2.088h2.04v.084H1.537a.037.037,0,0,0,0,.073Zm-1.113,0a.049.049,0,0,1,.049.049V2.4H.46a.191.191,0,0,0-.129.047.059.059,0,0,1-.064.008A.059.059,0,0,1,.233,2.4V2.245Zm1.832.633a.432.432,0,0,1-.3.272.653.653,0,0,1-.207.033H.76A.653.653,0,0,1,.553,3.15a.4.4,0,0,1-.32-.417H.473v.013a.146.146,0,1,0,.292,0V2.733h1.51A.4.4,0,0,1,2.256,2.878ZM2.434,2.5v.032a.128.128,0,0,1-.128.128H.764V2.575A.233.233,0,0,0,.88,2.518a.157.157,0,0,1,.219,0,.226.226,0,0,0,.155.06.224.224,0,0,0,.155-.06.157.157,0,0,1,.219,0,.229.229,0,0,0,.31,0,.154.154,0,0,1,.109-.044.119.119,0,0,1,.082.03.134.134,0,0,0,.219-.1V2.379A.128.128,0,0,1,2.434,2.5Zm-.128-.485H.2a.128.128,0,0,1-.128-.128V1.854A.128.128,0,0,1,.2,1.727H2.306a.128.128,0,0,1,.128.128v.032A.128.128,0,0,1,2.306,2.014Z" transform="translate(0 -0.756)" fill="#fff2f2"/></g></g><g transform="translate(22 34.3)"><path d="M267.482,179.611l.014,0a.044.044,0,0,0,.042-.03.078.078,0,0,1,.1-.048.166.166,0,0,0,.21-.1.044.044,0,1,0-.083-.028.077.077,0,0,1-.1.048.166.166,0,0,0-.21.1A.044.044,0,0,0,267.482,179.611Zm0,0" transform="translate(-266.146 -178.498)" fill="#fff"/><path d="M288.8,116.808l.014,0a.044.044,0,0,0,.042-.03.077.077,0,0,1,.1-.048.166.166,0,0,0,.21-.1.044.044,0,1,0-.083-.028.077.077,0,0,1-.1.048.165.165,0,0,0-.21.1A.044.044,0,0,0,288.8,116.808Zm0,0" transform="translate(-287.362 -116.001)" fill="#fff"/><path d="M310.109,59.2l.014,0a.044.044,0,0,0,.042-.03.057.057,0,0,1,.073-.036.145.145,0,0,0,.184-.091.044.044,0,1,0-.083-.028.057.057,0,0,1-.073.036.145.145,0,0,0-.184.091A.044.044,0,0,0,310.109,59.2Zm0,0" transform="translate(-308.565 -58.703)" fill="#fff"/><path d="M1.863,1.11A.057.057,0,0,0,1.838,1.1,3.1,3.1,0,0,0,1.98.274.3.3,0,0,0,1.859.027a.18.18,0,0,0-.188,0,.936.936,0,0,0-.3.428L1.358.48A.255.255,0,0,0,1.218.3.21.21,0,0,0,1.055.141a.137.137,0,0,0,0-.014A.152.152,0,0,0,.926.02.15.15,0,0,0,.833.04.16.16,0,0,0,.755.019.162.162,0,0,0,.6.144.2.2,0,0,0,.452.333.22.22,0,0,0,.3.626.173.173,0,0,0,.263.735.171.171,0,0,0,.278.8.234.234,0,0,0,.1.719.044.044,0,0,0,.1.807h0A.153.153,0,0,1,.215.866.3.3,0,0,0,.022.993a.224.224,0,0,0-.011.162A.076.076,0,0,0,0,1.2L.075,2.262a.251.251,0,0,0,.25.238H1.561a.25.25,0,0,0,.25-.237l.077-1.1h0a.057.057,0,0,0-.025-.051Zm-.469-.5C1.411.573,1.43.533,1.45.49A.913.913,0,0,1,1.712.1a.1.1,0,0,1,.1,0,.212.212,0,0,1,.08.169,3.014,3.014,0,0,1-.141.814l-.018.053-.075.033,0,0a.135.135,0,0,1-.14,0l-.031-.019a.227.227,0,0,0-.117-.032h0a.227.227,0,0,0-.118.032l-.031.019a.138.138,0,0,1-.056.018l0-.011c.012-.041.025-.081.039-.121l.016-.045C1.226.982,1.238.95,1.25.919L1.266.877A2.94,2.94,0,0,1,1.394.606ZM.833.71.848.691h0L.857.677A.094.094,0,0,0,.865.611l.184-.04a.1.1,0,0,0,0,.016A.1.1,0,0,0,1.1.636l.021.011.018.01.009,0L1.16.671l.013.008L1.187.69,1.2.7l.012.013A.151.151,0,0,1,1.23.74c-.019.041-.036.083-.053.126L1.168.885a.449.449,0,0,0-.152.076A.259.259,0,0,1,.8,1.014L.774.891A.2.2,0,0,1,.833.71ZM1.051.443h0a.019.019,0,0,1,.018.014.018.018,0,0,1-.014.022L.816.532A.018.018,0,0,1,.808.5L.937.468Zm-.142.68H.9a.226.226,0,0,0-.07.019L.82,1.1l.037,0a.34.34,0,0,0,.21-.073A.538.538,0,0,1,1.128,1l-.012.034-.009.025q-.019.059-.037.118l-.029-.018a.227.227,0,0,0-.117-.032H.909ZM.383.669.411.645.393.613A.132.132,0,0,1,.5.414l.053,0L.543.36a.108.108,0,0,1,.1-.134l.041,0V.179A.074.074,0,0,1,.755.107.073.073,0,0,1,.8.127L.835.154.865.125A.062.062,0,0,1,.916.108.063.063,0,0,1,.968.153a.058.058,0,0,1,0,.023L.965.225h.05a.121.121,0,0,1,.12.112l0,.029.027.01a.168.168,0,0,1,.112.162.159.159,0,0,1-.029.087A.466.466,0,0,0,1.16.57L1.139.559a.01.01,0,0,1,0-.008A.025.025,0,0,1,1.14.532.094.094,0,0,0,1.161.45L1.156.426A.094.094,0,0,0,1.044.355l-.012,0h0L.9.385.777.413A.094.094,0,0,0,.705.525l0,.012h0l0,.012A.094.094,0,0,0,.765.615.027.027,0,0,1,.78.629s0,0,0,.009h0L.764.656.749.675.744.682.733.7.727.706.717.722.712.732.7.751.7.759a.241.241,0,0,0-.01.03V.795a.24.24,0,0,0,0,.028s0,.008,0,.012,0,.01,0,.016h0l0,0L.656.819.648.811.629.791.622.785.6.765.591.76.572.749l-.009,0L.543.736l-.007,0L.514.728H.479l-.02,0H.449L.423.735h0A.276.276,0,0,0,.357.766.084.084,0,0,1,.351.735.086.086,0,0,1,.383.669ZM.1,1.034A.22.22,0,0,1,.242.95a.237.237,0,0,0,.1-.056L.376.862A.2.2,0,0,1,.47.814h0A.089.089,0,0,1,.5.814L.5.816l.012,0,.008,0L.535.829.544.835.555.843l.01.009.01.009L.586.874.6.884.608.9.616.91.631.932.637.941.658.977a.334.334,0,0,1,.029.215H.68a.137.137,0,0,1-.048-.017L.6,1.155a.227.227,0,0,0-.117-.032h0a.227.227,0,0,0-.118.032l-.015.009a.171.171,0,0,1-.086.024.17.17,0,0,1-.086-.024L.117,1.129h0a.075.075,0,0,0-.025-.009A.126.126,0,0,1,.1,1.034ZM1.723,2.258a.163.163,0,0,1-.163.154H.326a.163.163,0,0,1-.163-.155L.09,1.217l.038.023a.258.258,0,0,0,.135.037A.258.258,0,0,0,.4,1.24l.015-.009a.135.135,0,0,1,.14,0l.031.019a.226.226,0,0,0,.129.032H.727a.226.226,0,0,0,.087-.028l.008,0,.031-.019a.135.135,0,0,1,.14,0l.031.019a.227.227,0,0,0,.108.032h0a.224.224,0,0,0,.038,0l.022,0,.01,0a.225.225,0,0,0,.056-.023l.031-.019a.135.135,0,0,1,.14,0l.031.019a.227.227,0,0,0,.118.032h0A.227.227,0,0,0,1.7,1.251l.086-.038,0,0,.007,0Zm0,0" transform="translate(0 0)" fill="#fff"/><path d="M45.106,369.542h.308a.044.044,0,0,0,0-.088h-.308a.044.044,0,0,0,0,.088Zm0,0" transform="translate(-44.842 -367.65)" fill="#fff"/><path d="M45.106,405.585h.4a.044.044,0,0,0,0-.088h-.4a.044.044,0,0,0,0,.088Zm0,0" transform="translate(-44.842 -403.517)" fill="#fff"/><path d="M45.591,441.539h-.484a.044.044,0,0,0,0,.088h.484a.044.044,0,0,0,0-.088Zm0,0" transform="translate(-44.843 -439.383)" fill="#fff"/><path d="M180.347,441.539h-.088a.044.044,0,0,0,0,.088h.088a.044.044,0,0,0,0-.088Zm0,0" transform="translate(-179.335 -439.383)" fill="#fff"/></g><g transform="translate(26.6 29.1)"><path d="M258.228,247.9l.084.032.015,0a.041.041,0,0,0,.015-.079l-.084-.032a.041.041,0,0,0-.029.077Z" transform="translate(-256.789 -246.829)" fill="#fff"/><path d="M2.65,66.982H2.628a.274.274,0,0,0,.094-.095.189.189,0,0,0-.064-.245A.4.4,0,0,0,2,66.212l-.189-.272a.041.041,0,0,0-.06-.008.512.512,0,0,0-.123.159.268.268,0,0,0-.113.042.7.7,0,0,0-.063-.236.041.041,0,0,0-.073.038.733.733,0,0,1,.059.278.041.041,0,0,0,.07.029.312.312,0,0,1,.084-.057.512.512,0,0,0,.027.348l-.368.165c-.084-.145-.17-.213-.258-.2a.179.179,0,0,0-.061.017c-.066-.105-.092-.187-.069-.222.009-.013.035-.052.113-.035a.314.314,0,0,1,.087.036.041.041,0,0,0,.062-.043.806.806,0,0,1-.015-.119s0,0,0,0a.389.389,0,0,1,.043-.23.117.117,0,0,1,.087-.049.14.14,0,0,1,.033,0,.041.041,0,0,0,.01-.081.221.221,0,0,0-.052,0,.2.2,0,0,0-.144.083.368.368,0,0,0-.058.2.4.4,0,0,0-.552.554.265.265,0,0,0,0,.067.457.457,0,0,0-.3,0,.178.178,0,0,0-.1.115.189.189,0,0,0,.07.207h0a.15.15,0,0,0-.15.15v.009a.15.15,0,0,0,.15.15H.285l.329.321a.14.14,0,0,0-.038.1h0a.136.136,0,0,0,.14.135H2.084a.136.136,0,0,0,.14-.135h0a.14.14,0,0,0-.039-.1l.329-.321H2.65a.15.15,0,0,0,.15-.15v-.009a.15.15,0,0,0-.15-.15Zm0-.134a.362.362,0,0,1-.215.13l-.01,0H1.662a.51.51,0,0,0,.073-.4.108.108,0,0,1,.08-.034c.04,0,.049.02.051.026.017.033-.006.1-.021.126a.041.041,0,0,0,.068.045.889.889,0,0,1,.242-.218l.009,0a.068.068,0,0,1,.051-.006c.02.009.047.027.044.088a.27.27,0,0,1-.017.079.041.041,0,0,0,.054.054.475.475,0,0,1,.305-.031.106.106,0,0,1,.047.142Zm-1.256.1-.037-.082a.041.041,0,1,0-.075.034l.035.078H1.188l.015-.039a.041.041,0,1,0-.077-.029l-.026.069H.909l-.024-.03.772-.345a.436.436,0,0,1-.09.367l-.005.008H1.4a.041.041,0,0,0,0-.029Zm.752-.537a.161.161,0,1,1,.242.2l0,0-.042.011a.17.17,0,0,0-.091-.194.132.132,0,0,0-.089,0Zm.141-.239A.319.319,0,0,1,2.6,66.5a.315.315,0,0,1-.023.118.365.365,0,0,0-.08-.005.243.243,0,0,0-.406-.264l-.044-.063A.318.318,0,0,1,2.286,66.177Zm-.512-.15.311.446a.694.694,0,0,0-.1.077l-.033.031a.134.134,0,0,0-.014-.045.137.137,0,0,0-.115-.069.174.174,0,0,0-.126.04.432.432,0,0,1,.075-.48Zm-.9.546a.138.138,0,0,0-.01.036l-.033-.031a.53.53,0,0,0-.151-.1v0a.161.161,0,0,1,.132-.254h0a.183.183,0,0,0-.021.026c-.046.069-.02.176.079.328ZM.495,66.38a.318.318,0,0,1,.536-.232c0,.014,0,.027,0,.039a.288.288,0,0,0-.1-.017.243.243,0,0,0-.351.295l-.015.005a.154.154,0,0,0-.05.033.318.318,0,0,1-.025-.123Zm-.186.6C.19,66.93.141,66.869.162,66.8a.1.1,0,0,1,.053-.064.476.476,0,0,1,.305.031.041.041,0,0,0,.054-.053.27.27,0,0,1-.017-.079c0-.06.024-.079.044-.088.058-.025.213.116.3.228a.041.041,0,0,0,.068-.045C.958,66.7.935,66.635.952,66.6c0-.005.011-.021.051-.026s.112.051.174.156L.808,66.9a.041.041,0,0,0-.019.058l.017.027H.314Zm1.834.729a.054.054,0,0,1-.058.053H.716a.054.054,0,0,1-.058-.053h0a.058.058,0,0,1,.058-.058H2.084a.058.058,0,0,1,.058.058Zm.576-.568a.068.068,0,0,1-.068.068H.785a.041.041,0,0,0,0,.082H2.4l-.284.277H.687L.4,67.29H.621a.041.041,0,0,0,0-.082H.15a.068.068,0,0,1-.068-.068v-.009a.068.068,0,0,1,.068-.068h2.5a.068.068,0,0,1,.068.068Z" transform="translate(0 -65.762)" fill="#fff"/><path d="M320.712,165.759h0l.077,0a.041.041,0,1,0,0-.082l-.077,0a.041.041,0,0,0,0,.082Z" transform="translate(-318.917 -165.128)" fill="#fff"/></g><g transform="translate(26.7 34.1)"><path d="M18.473,17.584h-.208v-.25a.706.706,0,0,0-.226-.518.833.833,0,0,1,.211-.283.042.042,0,0,0-.027-.073.658.658,0,0,0-.313.07.741.741,0,0,1,.055-.08.963.963,0,0,1,.118-.125.042.042,0,0,0-.027-.073.67.67,0,0,0-.3.062A.392.392,0,0,0,17.575,16a.042.042,0,0,0-.037,0,.392.392,0,0,0-.185.308.669.669,0,0,0-.3-.062.042.042,0,0,0-.027.073.963.963,0,0,1,.118.125.742.742,0,0,1,.055.08.658.658,0,0,0-.313-.07.042.042,0,0,0-.027.073.833.833,0,0,1,.211.283.706.706,0,0,0-.226.518v0a.384.384,0,0,0-.139.053l-.015.009a.663.663,0,0,1,.063-.252h0a.042.042,0,1,0-.069-.046h0a.731.731,0,0,0-.079.309.118.118,0,0,1-.039-.019.4.4,0,0,0-.181-.058.359.359,0,0,0-.277.125.445.445,0,0,0-.093.358l.026.175a.925.925,0,0,0,.107.316.358.358,0,0,0,.311.192.337.337,0,0,0,.091-.013h0l.07-.025a.035.035,0,0,1,.024,0l.07.025h0a.337.337,0,0,0,.091.013.346.346,0,0,0,.246-.106,1.034,1.034,0,0,0,1.159-.171.833.833,0,0,0,.294-.6A.042.042,0,0,0,18.473,17.584Zm-1.093-.209.176-.171.177.172-.176.171Zm.1.209h-.238a.414.414,0,0,0-.022-.05l.1-.1Zm.317-.15.155.15h-.31Zm-.177-.288.176-.171.177.172-.176.171Zm.029-.43a.62.62,0,0,1,.218.074l-.071.068Zm.087.2-.176.171-.176-.171.176-.171Zm-.412-.058-.071-.069a.62.62,0,0,1,.219-.074Zm0,.116.176.171-.177.171-.176-.171Zm-.06.4-.091.088,0,0a.356.356,0,0,0-.22-.121l.138-.134Zm-.028.617.026-.175a.5.5,0,0,0,0-.15h1a.685.685,0,0,1-.228.384.778.778,0,0,1-.514.2.764.764,0,0,1-.328-.075.942.942,0,0,0,.046-.183Zm.878-.408.071-.068v.068Zm.071-.184-.152.147-.176-.171.176-.171.152.147Zm-.009-.173-.082-.08.047-.045A.619.619,0,0,1,18.172,17.226Zm-.074-.2-.068.066-.177-.172.082-.08a.63.63,0,0,1,.163.185Zm.016-.472a.814.814,0,0,0-.142.21.709.709,0,0,0-.119-.07q0-.01,0-.019a.466.466,0,0,1,.259-.121Zm-.167-.208a.665.665,0,0,0-.174.317.7.7,0,0,0-.151-.031c0-.015-.011-.032-.019-.051a.443.443,0,0,1,.344-.236Zm-.39-.252a.363.363,0,0,1,.124.27.506.506,0,0,0-.124.131.515.515,0,0,0-.066-.081.507.507,0,0,0-.058-.05A.363.363,0,0,1,17.556,16.09Zm-.39.252a.444.444,0,0,1,.366.284.7.7,0,0,0-.192.033q0-.013,0-.025h0l0,0A.7.7,0,0,0,17.166,16.342ZM17,16.55a.466.466,0,0,1,.259.121c0,.006,0,.013,0,.019a.709.709,0,0,0-.119.07A.814.814,0,0,0,17,16.55Zm.179.286.082.08-.177.172-.069-.067A.63.63,0,0,1,17.178,16.836Zm-.2.264.048.046-.084.082a.62.62,0,0,1,.036-.128Zm.076,1.167a.277.277,0,0,1-.239.15.251.251,0,0,1-.066-.009l-.068-.024a.119.119,0,0,0-.08,0l-.068.024a.269.269,0,0,1-.305-.141.842.842,0,0,1-.1-.288L16.1,17.8a.363.363,0,0,1,.074-.292.277.277,0,0,1,.214-.1.331.331,0,0,1,.13.041.2.2,0,0,0,.082.037c0,.033,0,.062,0,.085a.124.124,0,0,1-.055-.026h0a.042.042,0,0,0-.059.059.248.248,0,0,0,.309,0,.042.042,0,1,0-.059-.059.126.126,0,0,1-.053.025c0-.025,0-.055,0-.086a.2.2,0,0,0,.073-.034.331.331,0,0,1,.13-.041.277.277,0,0,1,.214.1.363.363,0,0,1,.074.292l-.026.175A.842.842,0,0,1,17.053,18.267Zm1.111-.105a.95.95,0,0,1-1.05.165l.012-.02q.015-.028.029-.056a.847.847,0,0,0,.36.082.861.861,0,0,0,.57-.22.764.764,0,0,0,.257-.446h.088A.769.769,0,0,1,18.164,18.162Z" transform="translate(-16.015 -16)" fill="#fff"/><circle cx="0.042" cy="0.042" r="0.042" transform="translate(2 1.75)" fill="#fff"/><circle cx="0.042" cy="0.042" r="0.042" transform="translate(1.791 1.958)" fill="#fff"/><circle cx="0.042" cy="0.042" r="0.042" transform="translate(1.583 1.833)" fill="#fff"/><circle cx="0.042" cy="0.042" r="0.042" transform="translate(1.333 1.833)" fill="#fff"/><circle cx="0.042" cy="0.042" r="0.042" transform="translate(1.458 2.083)" fill="#fff"/></g><g transform="translate(24.4 31.5)"><path d="M2.1.036,2.07,0,.885,1.185l.071.237a.068.068,0,0,1-.048.068l-.076.025-.023.07a.145.145,0,0,1-.093.1h0a.317.317,0,0,1-.086-.046A.218.218,0,0,0,.5,1.582l-.016,0L0,2.069.036,2.1A1.463,1.463,0,0,0,2.1.036ZM.58,1.715c.058.038.113.073.163.058A.24.24,0,0,0,.9,1.614L.908,1.59l.03-.01A.161.161,0,0,0,1.049,1.4L.992,1.212,1.819.384a.9.9,0,0,1,.273.626,1.057,1.057,0,0,1-.323.759,1.055,1.055,0,0,1-.759.323.9.9,0,0,1-.626-.273l.138-.138a.633.633,0,0,1,.057.035ZM2,2a1.362,1.362,0,0,1-1.866.064l.182-.182a1,1,0,0,0,.69.3H1.03a1.156,1.156,0,0,0,.806-.351,1.152,1.152,0,0,0,.351-.827,1,1,0,0,0-.3-.69L2.067.136A1.362,1.362,0,0,1,2,2ZM2,2" transform="translate(-0.001)" fill="#fff"/><path d="M43.036,163.618a.071.071,0,1,1-.071-.071A.071.071,0,0,1,43.036,163.618Zm0,0" transform="translate(-42.685 -162.748)" fill="#fff"/><path d="M159.012,376.243a.071.071,0,1,1-.071-.071A.071.071,0,0,1,159.012,376.243Zm0,0" transform="translate(-158.095 -374.335)" fill="#fff"/><path d="M250.516,247.036a.071.071,0,1,1-.071-.071A.071.071,0,0,1,250.516,247.036Zm0,0" transform="translate(-249.152 -245.759)" fill="#fff"/><path d="M298.357,199.192a.071.071,0,1,1-.071-.071A.071.071,0,0,1,298.357,199.192Zm0,0" transform="translate(-296.759 -198.149)" fill="#fff"/><path d="M271.016,363.216a.071.071,0,1,1-.071-.071A.071.071,0,0,1,271.016,363.216Zm0,0" transform="translate(-269.552 -361.372)" fill="#fff"/><path d="M318.856,315.376a.071.071,0,1,1-.071-.071A.071.071,0,0,1,318.856,315.376Zm0,0" transform="translate(-317.159 -313.765)" fill="#fff"/><path d="M366.7,267.532a.071.071,0,1,1-.071-.071A.071.071,0,0,1,366.7,267.532Zm0,0" transform="translate(-364.765 -266.155)" fill="#fff"/><path d="M346.2,151.356a.071.071,0,1,1-.071-.071A.071.071,0,0,1,346.2,151.356Zm0,0" transform="translate(-344.369 -150.546)" fill="#fff"/><path d="M216.352,349.54a.071.071,0,1,1-.071-.071A.071.071,0,0,1,216.352,349.54Zm0,0" transform="translate(-215.155 -347.762)" fill="#fff"/><path d="M265.325,298.927a.071.071,0,1,1-.071-.071A.071.071,0,0,1,265.325,298.927Zm0,0" transform="translate(-263.889 -297.397)" fill="#fff"/><path d="M313.646,250.6a.071.071,0,1,1-.071-.071A.071.071,0,0,1,313.646,250.6Zm0,0" transform="translate(-311.973 -249.308)" fill="#fff"/><path d="M72.028,260.266a.071.071,0,1,1-.071-.071A.071.071,0,0,1,72.028,260.266Zm0,0" transform="translate(-71.536 -258.924)" fill="#fff"/><path d="M130.016,182.95a.071.071,0,1,1-.071-.071A.071.071,0,0,1,130.016,182.95Zm0,0" transform="translate(-129.241 -181.986)" fill="#fff"/><path d="M359.864,206.028a.071.071,0,1,1-.071-.071A.071.071,0,0,1,359.864,206.028Zm0,0" transform="translate(-357.966 -204.951)" fill="#fff"/></g></g></g></svg>